<?xml version="1.0" standalone="no"?><svg xmlns="http://www.w3.org/2000/svg" viewBox="0 0 1440 320"><path fill="#9effe4" fill-opacity="1" d="M0,256L26.7,256C53.3,256,107,256,160,224C213.3,192,267,128,320,128C373.3,128,427,192,480,186.7C533.3,181,587,107,640,90.7C693.3,75,747,117,800,128C853.3,139,907,117,960,144C1013.3,171,1067,245,1120,240C1173.3,235,1227,149,1280,128C1333.3,107,1387,149,1413,170.7L1440,192L1440,0L1413.3,0C1386.7,0,1333,0,1280,0C1226.7,0,1173,0,1120,0C1066.7,0,1013,0,960,0C906.7,0,853,0,800,0C746.7,0,693,0,640,0C586.7,0,533,0,480,0C426.7,0,373,0,320,0C266.7,0,213,0,160,0C106.7,0,53,0,27,0L0,0Z"></path></svg>