<?xml version="1.0" standalone="no"?><svg xmlns="http://www.w3.org/2000/svg" viewBox="0 0 1440 320"><path fill="#9effe4" fill-opacity="1" d="M0,128L34.3,133.3C68.6,139,137,149,206,138.7C274.3,128,343,96,411,106.7C480,117,549,171,617,181.3C685.7,192,754,160,823,128C891.4,96,960,64,1029,48C1097.1,32,1166,32,1234,58.7C1302.9,85,1371,139,1406,165.3L1440,192L1440,320L1405.7,320C1371.4,320,1303,320,1234,320C1165.7,320,1097,320,1029,320C960,320,891,320,823,320C754.3,320,686,320,617,320C548.6,320,480,320,411,320C342.9,320,274,320,206,320C137.1,320,69,320,34,320L0,320Z"></path></svg>